<svg width="117" height="40" viewBox="0 0 117 40" fill="none" xmlns="http://www.w3.org/2000/svg">
<rect x="0.5" y="0.5" width="116" height="39" rx="3.5" fill="white"/>
<rect x="0.5" y="0.5" width="116" height="39" rx="3.5" stroke="#1BA69C"/>
<path d="M25 13.25C25.684 13.25 26.308 13.418 26.872 13.754C27.448 14.09 27.904 14.546 28.24 15.122C28.576 15.698 28.744 16.322 28.744 16.994C28.744 17.714 28.558 18.374 28.186 18.974C27.826 19.562 27.34 20.012 26.728 20.324C27.664 20.684 28.51 21.302 29.266 22.178C29.794 22.766 30.214 23.408 30.526 24.104C30.838 24.788 30.994 25.418 30.994 25.994L30.256 26.75H19.744L19.006 25.994C19.006 25.418 19.162 24.788 19.474 24.104C19.786 23.408 20.206 22.766 20.734 22.178C21.49 21.302 22.336 20.684 23.272 20.324C22.66 20.012 22.168 19.562 21.796 18.974C21.436 18.374 21.256 17.714 21.256 16.994C21.256 16.322 21.424 15.698 21.76 15.122C22.096 14.546 22.546 14.09 23.11 13.754C23.686 13.418 24.316 13.25 25 13.25ZM28.15 23.168C27.694 22.652 27.202 22.25 26.674 21.962C26.122 21.65 25.564 21.494 25 21.494C24.436 21.494 23.878 21.65 23.326 21.962C22.798 22.25 22.306 22.652 21.85 23.168C21.562 23.504 21.31 23.858 21.094 24.23C20.89 24.578 20.734 24.92 20.626 25.256H29.374C29.266 24.92 29.11 24.578 28.906 24.23C28.69 23.858 28.438 23.504 28.15 23.168ZM25 19.244C25.408 19.244 25.78 19.148 26.116 18.956C26.464 18.752 26.74 18.476 26.944 18.128C27.148 17.78 27.25 17.402 27.25 16.994C27.25 16.586 27.148 16.214 26.944 15.878C26.74 15.53 26.464 15.254 26.116 15.05C25.78 14.846 25.408 14.744 25 14.744C24.592 14.744 24.214 14.846 23.866 15.05C23.53 15.254 23.26 15.53 23.056 15.878C22.852 16.214 22.75 16.586 22.75 16.994C22.75 17.402 22.852 17.78 23.056 18.128C23.26 18.476 23.53 18.752 23.866 18.956C24.214 19.148 24.592 19.244 25 19.244Z" fill="#1BA69C"/>
<path d="M50.5269 26L49.4069 22.704H44.8949L43.7749 26H42.4149L46.3189 14.832H48.0309L51.9349 26H50.5269ZM47.1829 16.08H47.1029L45.2149 21.52H49.0709L47.1829 16.08ZM56.7289 26.192C56.1529 26.192 55.6355 26.0907 55.1769 25.888C54.7182 25.6853 54.3289 25.3973 54.0089 25.024C53.6995 24.6507 53.4595 24.1973 53.2889 23.664C53.1289 23.1307 53.0489 22.5333 53.0489 21.872C53.0489 21.2107 53.1289 20.6133 53.2889 20.08C53.4595 19.5467 53.6995 19.0933 54.0089 18.72C54.3289 18.3467 54.7182 18.0587 55.1769 17.856C55.6355 17.6533 56.1529 17.552 56.7289 17.552C57.5502 17.552 58.2062 17.7333 58.6969 18.096C59.1982 18.448 59.5715 18.912 59.8169 19.488L58.7449 20.032C58.5955 19.6053 58.3502 19.2747 58.0089 19.04C57.6675 18.8053 57.2409 18.688 56.7289 18.688C56.3449 18.688 56.0089 18.752 55.7209 18.88C55.4329 18.9973 55.1929 19.168 55.0009 19.392C54.8089 19.6053 54.6649 19.8667 54.5689 20.176C54.4729 20.4747 54.4249 20.8053 54.4249 21.168V22.576C54.4249 23.3013 54.6169 23.8987 55.0009 24.368C55.3955 24.8267 55.9715 25.056 56.7289 25.056C57.7635 25.056 58.5102 24.576 58.9689 23.616L59.8969 24.24C59.6302 24.8373 59.2302 25.312 58.6969 25.664C58.1742 26.016 57.5182 26.192 56.7289 26.192ZM64.682 26.192C64.106 26.192 63.5887 26.0907 63.13 25.888C62.6713 25.6853 62.282 25.3973 61.962 25.024C61.6527 24.6507 61.4127 24.1973 61.242 23.664C61.082 23.1307 61.002 22.5333 61.002 21.872C61.002 21.2107 61.082 20.6133 61.242 20.08C61.4127 19.5467 61.6527 19.0933 61.962 18.72C62.282 18.3467 62.6713 18.0587 63.13 17.856C63.5887 17.6533 64.106 17.552 64.682 17.552C65.5033 17.552 66.1593 17.7333 66.65 18.096C67.1513 18.448 67.5247 18.912 67.77 19.488L66.698 20.032C66.5487 19.6053 66.3033 19.2747 65.962 19.04C65.6207 18.8053 65.194 18.688 64.682 18.688C64.298 18.688 63.962 18.752 63.674 18.88C63.386 18.9973 63.146 19.168 62.954 19.392C62.762 19.6053 62.618 19.8667 62.522 20.176C62.426 20.4747 62.378 20.8053 62.378 21.168V22.576C62.378 23.3013 62.57 23.8987 62.954 24.368C63.3487 24.8267 63.9247 25.056 64.682 25.056C65.7167 25.056 66.4633 24.576 66.922 23.616L67.85 24.24C67.5833 24.8373 67.1833 25.312 66.65 25.664C66.1273 26.016 65.4713 26.192 64.682 26.192ZM72.6831 26.192C72.1285 26.192 71.6218 26.0907 71.1631 25.888C70.7045 25.6853 70.3098 25.3973 69.9791 25.024C69.6591 24.64 69.4085 24.1867 69.2271 23.664C69.0458 23.1307 68.9551 22.5333 68.9551 21.872C68.9551 21.2213 69.0458 20.6293 69.2271 20.096C69.4085 19.5627 69.6591 19.1093 69.9791 18.736C70.3098 18.352 70.7045 18.0587 71.1631 17.856C71.6218 17.6533 72.1285 17.552 72.6831 17.552C73.2378 17.552 73.7391 17.6533 74.1871 17.856C74.6458 18.0587 75.0405 18.352 75.3711 18.736C75.7018 19.1093 75.9578 19.5627 76.1391 20.096C76.3205 20.6293 76.4111 21.2213 76.4111 21.872C76.4111 22.5333 76.3205 23.1307 76.1391 23.664C75.9578 24.1867 75.7018 24.64 75.3711 25.024C75.0405 25.3973 74.6458 25.6853 74.1871 25.888C73.7391 26.0907 73.2378 26.192 72.6831 26.192ZM72.6831 25.056C73.3765 25.056 73.9418 24.8427 74.3791 24.416C74.8165 23.9893 75.0351 23.3387 75.0351 22.464V21.28C75.0351 20.4053 74.8165 19.7547 74.3791 19.328C73.9418 18.9013 73.3765 18.688 72.6831 18.688C71.9898 18.688 71.4245 18.9013 70.9871 19.328C70.5498 19.7547 70.3311 20.4053 70.3311 21.28V22.464C70.3311 23.3387 70.5498 23.9893 70.9871 24.416C71.4245 24.8427 71.9898 25.056 72.6831 25.056ZM83.6043 24.656H83.5403C83.4549 24.848 83.3483 25.04 83.2203 25.232C83.1029 25.4133 82.9536 25.5787 82.7723 25.728C82.5909 25.8667 82.3723 25.9787 82.1163 26.064C81.8603 26.1493 81.5616 26.192 81.2203 26.192C80.3669 26.192 79.6896 25.92 79.1883 25.376C78.6869 24.8213 78.4363 24.0427 78.4363 23.04V17.744H79.7163V22.816C79.7163 24.2987 80.3456 25.04 81.6043 25.04C81.8603 25.04 82.1056 25.008 82.3403 24.944C82.5856 24.88 82.7989 24.784 82.9803 24.656C83.1723 24.528 83.3216 24.368 83.4283 24.176C83.5456 23.9733 83.6043 23.7333 83.6043 23.456V17.744H84.8843V26H83.6043V24.656ZM87.61 26V17.744H88.89V19.088H88.954C89.1567 18.6187 89.4393 18.2453 89.802 17.968C90.1753 17.6907 90.6713 17.552 91.29 17.552C92.1433 17.552 92.8153 17.8293 93.306 18.384C93.8073 18.928 94.058 19.7013 94.058 20.704V26H92.778V20.928C92.778 19.4453 92.154 18.704 90.906 18.704C90.65 18.704 90.3993 18.736 90.154 18.8C89.9193 18.864 89.706 18.96 89.514 19.088C89.322 19.216 89.1673 19.3813 89.05 19.584C88.9433 19.776 88.89 20.0053 88.89 20.272V26H87.61ZM98.5278 26C98.0798 26 97.7384 25.8773 97.5038 25.632C97.2798 25.376 97.1678 25.0453 97.1678 24.64V18.864H95.8078V17.744H96.5758C96.8531 17.744 97.0398 17.6907 97.1358 17.584C97.2424 17.4667 97.2958 17.2693 97.2958 16.992V15.456H98.4478V17.744H100.256V18.864H98.4478V24.88H100.128V26H98.5278Z" fill="#01857C"/>
</svg>
