<svg width="40" height="40" viewBox="0 0 40 40" fill="none" xmlns="http://www.w3.org/2000/svg">
<rect x="0.5" y="0.5" width="39" height="39" rx="3.5" fill="white"/>
<rect x="0.5" y="0.5" width="39" height="39" rx="3.5" stroke="#1BA69C"/>
<path d="M25.13 16.418C24.866 16.13 24.56 15.908 24.212 15.752C23.864 15.584 23.498 15.5 23.114 15.5C22.73 15.5 22.358 15.584 21.998 15.752C21.65 15.908 21.338 16.13 21.062 16.418L20 17.642L18.938 16.418C18.662 16.13 18.344 15.908 17.984 15.752C17.636 15.584 17.27 15.5 16.886 15.5C16.502 15.5 16.136 15.584 15.788 15.752C15.44 15.908 15.134 16.13 14.87 16.418C14.486 16.838 14.228 17.33 14.096 17.894C13.964 18.458 13.964 19.022 14.096 19.586C14.228 20.138 14.486 20.624 14.87 21.044C15.554 21.8 16.454 22.616 17.57 23.492C18.338 24.092 19.148 24.68 20 25.256C20.852 24.68 21.662 24.092 22.43 23.492C23.546 22.616 24.446 21.8 25.13 21.044C25.514 20.624 25.772 20.138 25.904 19.586C26.036 19.022 26.036 18.458 25.904 17.894C25.772 17.33 25.514 16.838 25.13 16.418ZM26.246 22.052C24.986 23.444 23.18 24.926 20.828 26.498L20 27.056L19.172 26.498C16.82 24.938 15.014 23.456 13.754 22.052C13.202 21.44 12.83 20.738 12.638 19.946C12.458 19.142 12.458 18.338 12.638 17.534C12.83 16.73 13.202 16.028 13.754 15.428C14.15 14.972 14.618 14.624 15.158 14.384C15.71 14.132 16.28 14.006 16.868 14.006C17.468 14.006 18.032 14.126 18.56 14.366C19.1 14.594 19.58 14.93 20 15.374C20.408 14.93 20.882 14.594 21.422 14.366C21.962 14.126 22.526 14.006 23.114 14.006C23.714 14.006 24.284 14.132 24.824 14.384C25.364 14.624 25.838 14.972 26.246 15.428C26.798 16.028 27.164 16.73 27.344 17.534C27.536 18.326 27.536 19.124 27.344 19.928C27.164 20.732 26.798 21.44 26.246 22.052Z" fill="#1BA69C"/>
</svg>
