<svg width="25" height="25" viewBox="0 0 25 25" fill="none" xmlns="http://www.w3.org/2000/svg">
<g clip-path="url(#clip0_25_8727)">
<path d="M4.03009 1.992L20.0141 1.992L20.0141 22.008L18.0221 20.208L15.0221 22.008L12.0221 20.208L9.0221 22.008L6.02209 20.208L4.03009 22.008L4.03009 1.992ZM6.02209 18.048L9.0221 19.8L12.0221 18L15.0221 19.8L18.0221 18.048L18.0221 4.008L6.02209 4.008L6.02209 18.048ZM8.01409 10.008L8.01409 7.992L16.0301 7.992L16.0301 10.008L8.01409 10.008ZM8.01409 13.992L8.01409 12L13.5341 12L13.5341 13.992L8.01409 13.992Z" fill="#535F5F"/>
</g>
<defs>
<clipPath id="clip0_25_8727">
<rect width="24" height="24" fill="white" transform="translate(0.127686) rotate(0.304814)"/>
</clipPath>
</defs>
</svg>
