<svg width="25" height="25" viewBox="0 0 25 25" fill="none" xmlns="http://www.w3.org/2000/svg">
<g clip-path="url(#clip0_25_8683)">
<path d="M20.1662 17.5637L20.1662 7.55572L16.1822 7.55572L16.1822 9.57172L14.1662 9.57172L14.1662 7.55572L10.1822 7.55572L10.1822 9.57172L8.16619 9.57172L8.16619 7.55572L4.18219 7.55572L4.18219 17.5637L20.1662 17.5637ZM14.1662 5.56372C14.1662 5.01972 13.9662 4.55572 13.5662 4.17172C13.1822 3.77172 12.7182 3.57172 12.1742 3.57172C11.6302 3.57172 11.1582 3.77172 10.7582 4.17172C10.3742 4.55572 10.1822 5.01972 10.1822 5.56372L14.1662 5.56372ZM16.1822 5.56372L22.1822 5.56372L22.1822 18.5717L21.1742 19.5557L3.17419 19.5557L2.16619 18.5717L2.16619 5.56372L8.16619 5.56372C8.16619 4.84372 8.34219 4.17972 8.69419 3.57172C9.06219 2.94772 9.55019 2.45972 10.1582 2.10772C10.7822 1.73972 11.4542 1.55572 12.1742 1.55572C12.8942 1.55572 13.5582 1.73972 14.1662 2.10772C14.7902 2.45972 15.2782 2.94772 15.6302 3.57172C15.9982 4.17972 16.1822 4.84372 16.1822 5.56372Z" fill="#535F5F"/>
</g>
<defs>
<clipPath id="clip0_25_8683">
<rect width="24" height="24" fill="white" transform="translate(0.127686) rotate(0.304814)"/>
</clipPath>
</defs>
</svg>
