<svg width="16" height="18" viewBox="0 0 16 18" fill="none" xmlns="http://www.w3.org/2000/svg">
<path d="M7.992 -1.43051e-06C8.90401 -1.43051e-06 9.73601 0.223999 10.488 0.671999C11.256 1.12 11.864 1.728 12.312 2.496C12.76 3.264 12.984 4.096 12.984 4.992C12.984 5.952 12.736 6.832 12.24 7.632C11.76 8.416 11.112 9.016 10.296 9.432C11.544 9.912 12.672 10.736 13.68 11.904C14.384 12.688 14.944 13.544 15.36 14.472C15.776 15.384 15.984 16.224 15.984 16.992L15 18H0.984004L4.64916e-06 16.992C4.64916e-06 16.224 0.208005 15.384 0.624004 14.472C1.04 13.544 1.6 12.688 2.304 11.904C3.312 10.736 4.44 9.912 5.688 9.432C4.872 9.016 4.216 8.416 3.72001 7.632C3.24001 6.832 3.00001 5.952 3.00001 4.992C3.00001 4.096 3.224 3.264 3.672 2.496C4.12 1.728 4.72 1.12 5.472 0.671999C6.24 0.223999 7.08 -1.43051e-06 7.992 -1.43051e-06ZM12.192 13.224C11.584 12.536 10.928 12 10.224 11.616C9.48801 11.2 8.74401 10.992 7.992 10.992C7.24 10.992 6.496 11.2 5.76 11.616C5.056 12 4.4 12.536 3.792 13.224C3.408 13.672 3.07201 14.144 2.784 14.64C2.512 15.104 2.304 15.56 2.16 16.008H13.824C13.68 15.56 13.472 15.104 13.2 14.64C12.912 14.144 12.576 13.672 12.192 13.224ZM7.992 7.992C8.53601 7.992 9.03201 7.864 9.48001 7.608C9.94401 7.336 10.312 6.968 10.584 6.504C10.856 6.04 10.992 5.536 10.992 4.992C10.992 4.448 10.856 3.952 10.584 3.504C10.312 3.04 9.94401 2.672 9.48001 2.4C9.03201 2.128 8.53601 1.992 7.992 1.992C7.448 1.992 6.944 2.128 6.48 2.4C6.032 2.672 5.672 3.04 5.4 3.504C5.12801 3.952 4.99201 4.448 4.99201 4.992C4.99201 5.536 5.12801 6.04 5.4 6.504C5.672 6.968 6.032 7.336 6.48 7.608C6.944 7.864 7.448 7.992 7.992 7.992Z" fill="#00CCBC"/>
</svg>
