<svg width="67" height="78" viewBox="0 0 67 78" fill="none" xmlns="http://www.w3.org/2000/svg">
<g filter="url(#filter0_f_25_9598)">
<path d="M9.6641 69.8836L11.3549 67.8547C11.4471 67.744 11.5826 67.6785 11.7266 67.6749L51.9256 66.6824C51.9749 66.6812 52.0242 66.6873 52.0717 66.7005L59.4803 68.7584C59.9505 68.889 59.9742 69.5469 59.5146 69.711L54.087 71.6495C54.0295 71.67 53.9687 71.6798 53.9077 71.6785L10.0371 70.7036C9.61847 70.6943 9.39603 70.2053 9.6641 69.8836Z" fill="black" fill-opacity="0.3"/>
</g>
<path fill-rule="evenodd" clip-rule="evenodd" d="M45.4514 14.2482L30.6209 15.4356L31.0766 20.868L46.3833 18.699L45.4514 14.2482Z" fill="#03706D"/>
<path fill-rule="evenodd" clip-rule="evenodd" d="M30.5725 15.4357L26.9194 19.6497L27.2427 25.2321L18.1134 25.0322L19.2725 69.3597L56.8529 68.5477L58.3758 25.9055L48.9044 25.0322L48.9044 17.3931L45.333 14.2463L44.8663 25.2754L31.5789 25.1965L30.5725 15.4357Z" fill="#004F4D"/>
<path d="M46.1135 7.16938C48.8848 8.1486 50.8757 9.98561 52.0879 12.6797C53.1939 15.2025 53.3193 17.7883 52.4635 20.4358L51.7742 20.1925C51.7629 20.3868 51.7254 20.5832 51.6584 20.7819C51.5238 21.1807 51.3063 21.5072 51.0074 21.7648C51.0653 21.842 51.1214 21.9228 51.1742 22.0076C51.618 22.7167 51.7397 23.4955 51.54 24.3417C51.3487 25.2052 50.8883 25.8825 50.1576 26.3734C49.5936 26.7452 48.9887 26.915 48.3426 26.8901L47.3554 30.3437L49.4033 30.8768C48.8855 32.5409 47.8808 33.8096 46.3875 34.6838C44.8399 35.6012 43.2175 35.84 41.5209 35.3992L33.2145 33.2403C31.5312 32.8029 30.2597 31.8127 29.4005 30.2697C28.5789 28.7939 28.3939 27.2156 28.8458 25.5342L30.7867 26.0378L31.7102 23.4404C31.2836 23.2097 30.9325 22.8677 30.6575 22.4151C30.2008 21.7026 30.0748 20.9163 30.2784 20.0564C30.4778 19.2096 30.9415 18.5477 31.6676 18.07C31.8827 17.9217 32.1021 17.8024 32.3266 17.7138C32.3213 17.3159 32.3869 16.9107 32.5236 16.4984C32.825 15.5427 33.4061 14.8363 34.2645 14.3799C34.4138 14.2998 34.5642 14.2324 34.7143 14.1739L32.4813 13.3863C33.5819 10.8166 35.3982 8.9158 37.9303 7.68396C40.6315 6.35198 43.3593 6.18032 46.1135 7.16938Z" fill="black" fill-opacity="0.2"/>
<path fill-rule="evenodd" clip-rule="evenodd" d="M33.8631 21.4714L32.0141 26.3573L48.6007 30.3181L49.9626 25.9157L33.8631 21.4714Z" fill="#FB5058"/>
<path fill-rule="evenodd" clip-rule="evenodd" d="M50.8836 30.4162L30.4387 25.2296C29.9396 26.9345 30.0814 28.5282 30.8637 30.0119C31.6818 31.5632 32.928 32.5514 34.6021 32.9761L42.8624 35.0716C44.5498 35.4997 46.1816 35.2416 47.7572 34.2976C49.2773 33.3979 50.319 32.1045 50.8836 30.4162" fill="#FE9866"/>
<path fill-rule="evenodd" clip-rule="evenodd" d="M31.7783 19.8053C31.551 20.6754 31.6559 21.4677 32.0937 22.1823C32.5137 22.9078 33.1354 23.3447 33.9576 23.4949L49.1643 26.4684C49.9999 26.6216 50.7794 26.4579 51.5022 25.9785C52.2471 25.4755 52.726 24.7872 52.941 23.9134C53.164 23.0572 53.0633 22.2731 52.6384 21.5618C52.2054 20.8334 51.5799 20.3871 50.7608 20.224L35.5486 17.2712C34.7301 17.1074 33.9548 17.2792 33.2231 17.7859C32.4832 18.2756 32.0011 18.9486 31.7783 19.8053" fill="#9C006D"/>
<path fill-rule="evenodd" clip-rule="evenodd" d="M42.8439 26.5725L51.8444 20.5697L37.5844 17.7763L42.8439 26.5725Z" fill="#FABE00"/>
<path fill-rule="evenodd" clip-rule="evenodd" d="M36.0939 20.6422C37.0043 20.9181 37.8906 20.8128 38.7526 20.3272C39.2517 20.0486 39.6689 19.6899 40.0039 19.2506C40.3013 19.7154 40.72 20.0392 41.2613 20.221C41.9166 20.4025 42.5768 20.315 43.2419 19.9593C43.4653 19.8361 43.6683 19.6852 43.8516 19.5069C43.8065 20.0202 43.8954 20.5145 44.1175 20.9908C44.456 21.7363 45.0164 22.2229 45.7992 22.4516C46.5649 22.6903 47.3257 22.599 48.083 22.1759C48.6122 21.891 49.0251 21.5006 49.3204 21.0062C49.5603 21.4264 49.9153 21.7039 50.3858 21.8385C50.9356 21.9928 51.4686 21.9256 51.9849 21.637C52.5013 21.348 52.8607 20.9224 53.0638 20.3592C53.2668 19.796 53.2505 19.2522 53.0143 18.7278C52.7966 18.2827 52.4654 17.9739 52.0207 17.8013L52.0471 17.7851L38.4093 13.7197L38.1124 13.6445L38.106 13.6653C37.3499 13.5334 36.5958 13.6722 35.843 14.0807C34.9722 14.5492 34.3725 15.2668 34.0451 16.2329C33.7085 17.1814 33.7403 18.0888 34.1408 18.9553C34.5413 19.8213 35.1923 20.3835 36.0939 20.6422" fill="#017C88"/>
<path fill-rule="evenodd" clip-rule="evenodd" d="M53.6624 20.0351C54.5863 17.3719 54.5318 14.7808 53.4981 12.2616C52.3632 9.5714 50.4292 7.74876 47.6948 6.79341C44.9778 5.82805 42.256 6.02602 39.5293 7.38775C36.9737 8.64742 35.1133 10.5708 33.9477 13.1583L53.6624 20.0351Z" fill="#FE9866"/>
<path fill-rule="evenodd" clip-rule="evenodd" d="M40.1676 11.7645C40.4704 11.5933 40.6743 11.3383 40.779 11.0005C40.8837 10.6627 40.8559 10.3494 40.6956 10.0612C40.5486 9.77544 40.3137 9.59208 39.9923 9.51057C39.6836 9.43229 39.3779 9.47857 39.075 9.65022C38.7851 9.82429 38.5879 10.0805 38.4832 10.4183C38.3784 10.7561 38.3995 11.0681 38.547 11.3536C38.7074 11.6418 38.9418 11.8255 39.2505 11.9038C39.5719 11.9853 39.8781 11.9387 40.1676 11.7645" fill="#FABE00"/>
<path fill-rule="evenodd" clip-rule="evenodd" d="M44.2969 12.3537C44.0076 12.5259 43.8106 12.7801 43.7068 13.1151C43.6072 13.4365 43.6293 13.7462 43.7733 14.043C43.9341 14.3298 44.1688 14.5121 44.4775 14.5903C44.7992 14.6719 45.1042 14.6265 45.3936 14.4539C45.6999 14.2713 45.903 14.0187 46.0026 13.6973C46.1065 13.3622 46.0781 13.0509 45.9172 12.7646C45.7734 12.4674 45.541 12.2787 45.2193 12.1971C44.9106 12.1189 44.6033 12.1707 44.2969 12.3537" fill="#FABE00"/>
<path fill-rule="evenodd" clip-rule="evenodd" d="M44.7227 7.81234C44.4141 7.73406 44.1064 7.78664 43.8002 7.96886C43.4984 8.1383 43.295 8.3904 43.1912 8.72545C43.0913 9.04763 43.1203 9.35823 43.2765 9.65857C43.4374 9.94494 43.6723 10.1273 43.9809 10.2055C44.29 10.2839 44.595 10.2385 44.8975 10.0696C45.1908 9.88327 45.3871 9.62981 45.487 9.30764C45.5908 8.97259 45.5689 8.66335 45.4212 8.37991C45.264 8.08017 45.0318 7.89071 44.7227 7.81234" fill="#FABE00"/>
<path fill-rule="evenodd" clip-rule="evenodd" d="M50.0716 10.0401C49.9221 9.75456 49.6854 9.57031 49.3609 9.48802C49.0368 9.40582 48.7287 9.45192 48.4373 9.62562C48.1454 9.79962 47.9471 10.056 47.8424 10.3938C47.7377 10.7317 47.7598 11.0435 47.9093 11.329C48.0581 11.6152 48.295 11.799 48.6191 11.8812C48.9436 11.9635 49.2516 11.9178 49.5436 11.7434C49.835 11.5697 50.0335 11.3138 50.1382 10.976C50.243 10.6382 50.2206 10.3259 50.0716 10.0401" fill="#FABE00"/>
<path fill-rule="evenodd" clip-rule="evenodd" d="M50.5375 14.4456C50.2461 14.6193 50.0475 14.8756 49.9428 15.2134C49.838 15.5512 49.8606 15.8631 50.0096 16.1485C50.1589 16.4348 50.3957 16.6187 50.7202 16.701C51.0444 16.7832 51.3523 16.7375 51.644 16.563C51.9357 16.3894 52.1339 16.1334 52.2386 15.7956C52.3433 15.4578 52.3213 15.1455 52.1718 14.86C52.0228 14.5742 51.7862 14.39 51.462 14.3078C51.1375 14.2255 50.8294 14.2716 50.5375 14.4456" fill="#FABE00"/>
<path fill-rule="evenodd" clip-rule="evenodd" d="M20.7447 22.2669C22.0878 21.9987 23.1409 21.2921 23.905 20.1466C24.6429 19.0397 24.9003 17.8445 24.6775 16.56L14.9019 18.4117C15.1829 19.7351 15.8867 20.7721 17.012 21.5235C18.1574 22.2876 19.4017 22.5352 20.7447 22.2669" fill="#9C006D"/>
<path fill-rule="evenodd" clip-rule="evenodd" d="M16.0703 22.6201L12.1476 8.41249L8.78381 9.26107L12.7454 23.2843L16.0703 22.6201Z" fill="#FF9966"/>
<path fill-rule="evenodd" clip-rule="evenodd" d="M16.1748 11.0149L12.734 11.3489L14.4828 25.7894L17.8657 25.6683L16.1748 11.0149Z" fill="#FF9966"/>
<path fill-rule="evenodd" clip-rule="evenodd" d="M17.9476 8.38945L14.482 8.72838L16.2308 23.1689L19.6138 23.0479L17.9476 8.38945Z" fill="#FF9966"/>
<path fill-rule="evenodd" clip-rule="evenodd" d="M20.951 12.0547L17.5097 12.3888L19.2342 26.8337L22.6415 26.7083L20.951 12.0547Z" fill="#FF9966"/>
<path fill-rule="evenodd" clip-rule="evenodd" d="M22.5876 7.3615L19.1222 7.70091L20.8709 22.1409L24.2538 22.0199L22.5876 7.3615Z" fill="#FF9966"/>
<path fill-rule="evenodd" clip-rule="evenodd" d="M26.9797 9.89141L23.5142 10.2308L25.263 24.6708L28.6459 24.5498L26.9797 9.89141Z" fill="#FF9966"/>
<path fill-rule="evenodd" clip-rule="evenodd" d="M10.3119 10.9749L7.12759 11.9638L12.0557 25.643L15.2886 24.3916L10.3119 10.9749Z" fill="#FABE00"/>
<path fill-rule="evenodd" clip-rule="evenodd" d="M19.6357 10.652L16.2186 11.2336L19.0692 25.504L22.4479 25.1068L19.6357 10.652Z" fill="#FABE00"/>
<path fill-rule="evenodd" clip-rule="evenodd" d="M24.8685 8.04145L20.6556 8.30303L22.5498 22.8397L26.0979 22.5347L24.8685 8.04145Z" fill="#FABE00"/>
<path fill-rule="evenodd" clip-rule="evenodd" d="M29.4991 8.73213L26.5427 8.59077L26.467 23.1176L29.9756 23.3758L29.4991 8.73213Z" fill="#FABE00"/>
<path fill-rule="evenodd" clip-rule="evenodd" d="M15.5058 9.93744L12.0935 10.5433L14.9441 24.8137L18.3223 24.4165L15.5058 9.93744Z" fill="#FABE00"/>
<path fill-rule="evenodd" clip-rule="evenodd" d="M8.60608 19.6184L15.1203 35.4284L31.1871 32.219L30.1718 15.5125L24.6773 16.5601C24.9001 17.8446 24.6427 19.0398 23.9047 20.1467C23.1406 21.2917 22.0876 21.9987 20.7445 22.267C19.4015 22.5353 18.1571 22.2872 17.0118 21.5236C15.8865 20.7722 15.1826 19.7352 14.9016 18.4118L8.60608 19.6184Z" fill="white"/>
<path d="M36.3319 18.3111L36.331 18.3107L31.1117 34.3414L17.3494 29.3424L22.9927 13.233L25.5522 10.8639L35.6093 14.5266L36.3319 18.3111Z" fill="black" fill-opacity="0.1"/>
<rect x="24.4006" y="12.7902" width="13.1576" height="14.0974" transform="rotate(19.7774 24.4006 12.7902)" fill="#F64147"/>
<path d="M26.5219 11.056L36.4713 14.6336L36.7818 17.242L24.4003 12.79L26.5219 11.056Z" fill="#D9D9D9"/>
<path d="M35.0125 16.6056L35.0134 16.6059L30.2432 29.872L27.1472 28.7588L31.9174 15.4927L31.6069 12.8842L34.702 13.9971L35.0125 16.6056Z" fill="white" fill-opacity="0.3"/>
<ellipse cx="29.3447" cy="12.7634" rx="1.51044" ry="1.00696" transform="rotate(20.8483 29.3447 12.7634)" fill="#D9D9D9"/>
<path fill-rule="evenodd" clip-rule="evenodd" d="M40.1423 13.1136L24.9915 14.3267L25.457 19.8764L41.0944 17.6606L40.1423 13.1136Z" fill="#00CCBC"/>
<path fill-rule="evenodd" clip-rule="evenodd" d="M24.9916 14.3264L21.2451 18.6314L21.5766 24.3343L10.1433 24.2981L10.1433 41.6421L10.1433 69.4151L52.4912 69.4152L52.8798 47.2262L53.6113 24.474L43.7336 24.375L43.7925 16.3261L40.1297 13.1113L39.651 24.3786L26.0237 24.2981L24.9916 14.3264Z" fill="#00CCBC"/>
<path fill-rule="evenodd" clip-rule="evenodd" d="M22.6882 53.6715L36.6235 56.6204L39.8103 49.4944L41.328 35.1202L35.738 34.5352L34.7101 44.2732L32.9579 36.0638L27.4599 37.228L29.2131 45.4374L21.2882 47.1118L22.6882 53.6715ZM33.7514 48.3528C33.7735 48.2026 33.8353 48.0608 33.9305 47.9421C34.0601 47.7786 34.2778 47.5649 34.5241 47.558C34.9109 47.5361 35.2781 47.7285 35.4789 48.0583C35.6767 48.3873 35.5778 48.7478 35.369 49.1102C35.1603 49.4727 34.6122 49.519 34.073 49.256C33.7089 49.0787 33.7109 48.6276 33.7504 48.3518L33.7514 48.3528ZM30.7508 47.0537C30.4826 47.0586 29.9484 47.1226 29.8346 47.558L29.8386 47.558C29.6862 48.144 29.8653 48.6276 30.268 48.7616C30.6706 48.8955 31.0545 48.9192 31.3385 48.6572C31.6224 48.3952 31.7154 48.0593 31.6224 47.6594C31.5571 47.3817 31.2365 47.1995 31.0476 47.1138C30.9544 47.0717 30.853 47.0512 30.7508 47.0537Z" fill="white"/>
<defs>
<filter id="filter0_f_25_9598" x="7.54736" y="64.6823" width="54.2991" height="8.99634" filterUnits="userSpaceOnUse" color-interpolation-filters="sRGB">
<feFlood flood-opacity="0" result="BackgroundImageFix"/>
<feBlend mode="normal" in="SourceGraphic" in2="BackgroundImageFix" result="shape"/>
<feGaussianBlur stdDeviation="1" result="effect1_foregroundBlur_25_9598"/>
</filter>
</defs>
</svg>
