<svg width="121" height="32" viewBox="0 0 121 32" fill="none" xmlns="http://www.w3.org/2000/svg">
<path d="M44.1935 23.9046H46.9521L46.4951 21.7985V9.24266H43.8563V14.9694C43.0626 14.0643 41.9708 13.5332 40.6817 13.5332C38.0425 13.5332 35.9992 15.6779 35.9992 18.8271C35.9992 21.976 38.0425 24.121 40.6817 24.121C41.9913 24.121 43.1218 23.5699 43.916 22.6249L44.1935 23.9046ZM96.3569 16.3477C96.8927 16.3477 97.3885 16.4849 97.8447 16.7995L99.095 14.0252C98.5191 13.6704 97.8447 13.5135 97.1903 13.5135C95.9996 13.5135 95.0076 14.0433 94.3733 15.029L94.0949 13.7484H91.3764L91.8129 15.7362V23.903H94.4505V17.4291C94.8077 16.7597 95.4826 16.3469 96.3556 16.3469L96.3569 16.3477ZM104.094 21.3854C102.568 21.3854 101.436 20.382 101.436 18.8267C101.436 17.2525 102.568 16.2689 104.094 16.2689C105.643 16.2689 106.754 17.2525 106.754 18.8267C106.754 20.382 105.642 21.3854 104.094 21.3854ZM38.5583 18.8267C38.5583 17.2525 39.6892 16.2689 41.2167 16.2689C42.765 16.2689 43.8759 17.2525 43.8759 18.8267C43.8759 20.382 42.765 21.3854 41.2175 21.3854C39.6901 21.3854 38.5583 20.382 38.5583 18.8267ZM115.782 21.3854C114.254 21.3854 113.123 20.382 113.123 18.8267C113.123 17.2525 114.254 16.2689 115.782 16.2689C117.329 16.2689 118.44 17.2525 118.44 18.8267C118.44 20.382 117.329 21.3854 115.782 21.3854ZM53.3603 16.1112C54.7291 16.1112 55.6222 16.7408 55.8997 17.9018H50.8208C51.1183 16.7408 52.0114 16.1112 53.3603 16.1112ZM84.9274 16.1112C86.297 16.1112 87.1901 16.7408 87.4677 17.9018H82.3887C82.6863 16.7408 83.5785 16.1112 84.9274 16.1112ZM72.0514 23.9046H76.2973L79.0559 13.7497H76.1788L74.1556 21.976L72.1315 13.7497H69.2936L72.0514 23.9046ZM65.2455 23.9046H67.883V13.7493H65.2455V23.9046ZM53.7647 24.0927C55.2337 24.0927 56.6818 23.6984 57.8921 22.9312L56.8805 20.688C55.9277 21.18 54.8764 21.4753 53.8047 21.4753C52.4163 21.4753 51.4439 20.9439 51.0269 19.9598H58.4471C58.5264 19.5861 58.5669 19.2124 58.5669 18.7594C58.5669 15.6105 56.3646 13.5049 53.4078 13.5049C50.4322 13.5049 48.2496 15.6303 48.2496 18.7988C48.2496 22.0261 50.4114 24.0927 53.7647 24.0927ZM121 18.8267C121 15.6779 118.778 13.5328 115.782 13.5328C112.785 13.5328 110.563 15.6779 110.563 18.8267C110.563 21.976 112.785 24.1206 115.781 24.1206C118.778 24.1206 121 21.976 121 18.8267ZM85.2854 24.1206C86.7528 24.1206 88.2013 23.7272 89.4129 22.9596L88.4 20.7151C87.4476 21.2071 86.396 21.502 85.3242 21.502C83.9358 21.502 82.9634 20.9714 82.5465 19.9865H89.9675C90.0468 19.6128 90.086 19.2391 90.086 18.7865C90.086 15.6376 87.8833 13.532 84.9269 13.532C81.9514 13.532 79.7687 15.6569 79.7687 18.8259C79.7687 22.0532 81.9322 24.1206 85.2854 24.1206ZM104.095 24.1206C107.091 24.1206 109.313 21.976 109.313 18.8267C109.313 15.6779 107.091 13.5328 104.094 13.5328C101.098 13.5328 98.8759 15.6779 98.8759 18.8267C98.8759 21.976 101.099 24.1206 104.095 24.1206ZM60.2454 23.9042H62.8838V9.24225H60.245L60.2454 23.9042ZM66.5743 12.3512C67.5066 12.3512 68.2211 11.6424 68.2211 10.6978C68.2211 9.75316 67.5074 9.0447 66.5747 9.0447C65.6224 9.0447 64.9079 9.75316 64.9079 10.6978C64.9079 11.6424 65.6219 12.3512 66.5743 12.3512ZM21.2402 0.000305176L19.7294 14.0717L17.1524 2.20822L9.07283 3.88962L11.6486 15.7522L0 18.1754L2.05745 27.6514L22.5419 31.912L27.2264 21.6149L29.4558 0.845933L21.2402 0.000305176ZM14.7673 20.4132C14.345 20.7919 13.7866 20.757 13.194 20.564C12.6026 20.3718 12.3397 19.6715 12.5638 18.8251C12.7308 18.1967 13.5166 18.1022 13.9097 18.0957C14.0591 18.0932 14.206 18.1228 14.3417 18.1827C14.6196 18.306 15.0904 18.5688 15.1859 18.9696C15.3237 19.5479 15.1909 20.0334 14.7686 20.412L14.7673 20.4132ZM20.6977 21.0663C20.3909 21.5878 19.5855 21.6568 18.7929 21.2774C18.2588 21.0211 18.2629 20.3689 18.3214 19.9713C18.3524 19.7545 18.4417 19.5498 18.5801 19.3783C18.7708 19.1417 19.0893 18.8333 19.4573 18.8238C20.0558 18.8082 20.5708 19.0711 20.8617 19.5467C21.1538 20.0206 21.0077 20.5434 20.7002 21.0663H20.6977Z" fill="#00CCBD"/>
</svg>
