<svg width="24" height="24" viewBox="0 0 24 24" fill="none" xmlns="http://www.w3.org/2000/svg">
<path d="M12 2C17.5228 2 22 6.47715 22 12C22 17.5228 17.5228 22 12 22C6.47715 22 2 17.5228 2 12C2 6.47715 6.47715 2 12 2ZM12 4C7.58172 4 4 7.58172 4 12C4 16.4183 7.58172 20 12 20C16.4183 20 20 16.4183 20 12C20 7.58172 16.4183 4 12 4Z" fill="#535F5F"/>
<path d="M14.1198 14.1211L7.04873 16.9495L9.87716 9.87846L16.9482 7.05003L14.1198 14.1211ZM10.9378 10.9405L9.17005 14.8296L13.0591 13.0618L10.9378 10.9405Z" fill="#535F5F"/>
</svg>
