<svg width="25" height="25" viewBox="0 0 25 25" fill="none" xmlns="http://www.w3.org/2000/svg">
<g clip-path="url(#clip0_25_8661)">
<path d="M20.397 20.5L4.89697 20.5L4.89697 11L12.397 4.5L20.397 11L20.397 20.5Z" fill="#ACFAF5"/>
<path d="M2.89697 10.008L4.88897 8.448L4.88897 4.992L9.32897 4.992L11.897 3L20.897 10.008L20.897 21L2.89697 21L2.89697 10.008ZM13.889 19.008L18.905 19.008L18.905 10.968L11.897 5.544L4.88897 10.968L4.88897 19.008L9.90497 19.008L9.90497 13.992L13.889 13.992L13.889 19.008Z" fill="#097387"/>
<path d="M2.89697 10.008L4.88897 8.448L4.88897 4.992L9.32897 4.992L11.897 3L20.897 10.008L20.897 21L2.89697 21L2.89697 10.008ZM13.889 19.008L18.905 19.008L18.905 10.968L11.897 5.544L4.88897 10.968L4.88897 19.008L9.90497 19.008L9.90497 13.992L13.889 13.992L13.889 19.008Z" fill="#097387"/>
</g>
<defs>
<clipPath id="clip0_25_8661">
<rect width="24" height="24" fill="white" transform="translate(0.127686) rotate(0.304814)"/>
</clipPath>
</defs>
</svg>
