<svg width="19" height="20" viewBox="0 0 19 20" fill="none" xmlns="http://www.w3.org/2000/svg">
<path d="M3.25 4.82817e-10C7.57048 1.12466e-09 9.12554 0.921803 9.24274 5.42049L9.2495 5.426V5.426L9.25 4C9.25 1.79086 11.0409 1.64022e-09 13.25 1.96841e-09L13.25 2C12.1454 2 11.25 2.89543 11.25 4L11.25 4.29527C12.1129 3.99976 13.0361 3.912 13.9747 4.09539C15.7671 4.44566 17.0841 5.59316 17.8161 7.17716C18.5365 8.73606 18.6844 10.6889 18.2751 12.7496C17.3375 17.4691 14.4432 20.0043 11.7499 20.0043C10.6469 20.0043 9.78639 19.452 9.24989 18.985C8.71341 19.452 7.85288 20.0043 6.74991 20.0043C4.09258 20.0043 1.16311 17.473 0.224852 12.7496C-0.184475 10.689 -0.0368318 8.73619 0.6833 7.17729C1.34422 5.74657 2.48238 4.67192 4.01728 4.2192C3.42963 3.27555 3.25 1.90722 3.25 4.82817e-10ZM8.52216 7.47652C7.42622 6.31499 6.10981 5.8234 4.9079 6.05827C3.80583 6.27363 2.98829 6.95668 2.49894 8.01602C1.99796 9.1005 1.83769 10.6039 2.18652 12.3599C3.01937 16.5526 5.40724 18.0043 6.74991 18.0043C7.23636 18.0043 7.70034 17.7127 8.0662 17.3574C8.40962 17.0239 8.85371 16.8888 9.24989 16.8888C9.64607 16.8888 10.0902 17.0239 10.4336 17.3574C10.7994 17.7127 11.2634 18.0043 11.7499 18.0043C13.1226 18.0043 15.4798 16.5565 16.3134 12.3599C16.6622 10.604 16.5017 9.10063 16.0006 8.01615C15.511 6.95676 14.6932 6.27364 13.5911 6.05827C12.3892 5.82341 11.0728 6.31499 9.97685 7.47652L9.2495 8.24739L8.52216 7.47652Z" fill="#535F5F"/>
</svg>
