<svg width="21" height="18" viewBox="0 0 21 18" fill="none" xmlns="http://www.w3.org/2000/svg">
<path d="M17.016 3.216C16.664 2.832 16.256 2.536 15.792 2.328C15.328 2.104 14.84 1.992 14.328 1.992C13.816 1.992 13.32 2.104 12.84 2.328C12.376 2.536 11.96 2.832 11.592 3.216L10.176 4.848L8.76003 3.216C8.39203 2.832 7.96803 2.536 7.48803 2.328C7.02403 2.104 6.53603 1.992 6.02403 1.992C5.51203 1.992 5.02403 2.104 4.56003 2.328C4.09603 2.536 3.68803 2.832 3.33603 3.216C2.82403 3.776 2.48003 4.432 2.30403 5.184C2.12803 5.936 2.12803 6.688 2.30403 7.44C2.48003 8.176 2.82403 8.824 3.33603 9.384C4.24803 10.392 5.44803 11.48 6.93603 12.648C7.96003 13.448 9.04003 14.232 10.176 15C11.312 14.232 12.392 13.448 13.416 12.648C14.904 11.48 16.104 10.392 17.016 9.384C17.528 8.824 17.872 8.176 18.048 7.44C18.224 6.688 18.224 5.936 18.048 5.184C17.872 4.432 17.528 3.776 17.016 3.216ZM18.504 10.728C16.824 12.584 14.416 14.56 11.28 16.656L10.176 17.4L9.07203 16.656C5.93603 14.576 3.52803 12.6 1.84803 10.728C1.11203 9.912 0.616026 8.976 0.360026 7.92C0.120026 6.848 0.120026 5.776 0.360026 4.704C0.616026 3.632 1.11203 2.696 1.84803 1.896C2.37603 1.288 3.00003 0.824003 3.72003 0.504004C4.45603 0.168003 5.21603 2.86102e-06 6.00003 2.86102e-06C6.80003 2.86102e-06 7.55203 0.160003 8.25603 0.480004C8.97603 0.784004 9.61603 1.232 10.176 1.824C10.72 1.232 11.352 0.784004 12.072 0.480004C12.792 0.160003 13.544 2.86102e-06 14.328 2.86102e-06C15.128 2.86102e-06 15.888 0.168003 16.608 0.504004C17.328 0.824003 17.96 1.288 18.504 1.896C19.24 2.696 19.728 3.632 19.968 4.704C20.224 5.76 20.224 6.824 19.968 7.896C19.728 8.968 19.24 9.912 18.504 10.728Z" fill="#00CCBC"/>
</svg>
