<svg width="393" height="44" viewBox="0 0 393 44" fill="none" xmlns="http://www.w3.org/2000/svg">
<rect width="393" height="44" fill="white"/>
<path d="M31.154 28.3V19.5915H31.0295L28.4001 21.4518V19.6721L31.1614 17.7311H33.0437V28.3H31.154ZM39.3507 17.4675C41.6066 17.4675 43.5695 19.0715 43.5695 22.8801V22.8947C43.5695 26.4543 41.9654 28.5637 39.3068 28.5637C37.3658 28.5637 35.9156 27.4138 35.5787 25.7951L35.5641 25.7145H37.4244L37.4464 25.7878C37.7247 26.5275 38.3766 27.0109 39.3068 27.0109C40.984 27.0109 41.6945 25.3703 41.775 23.3488C41.775 23.2682 41.7823 23.1877 41.7823 23.1071H41.6359C41.2477 23.9421 40.3248 24.6818 38.8746 24.6818C36.8458 24.6818 35.4249 23.2023 35.4249 21.1955V21.1808C35.4249 19.0349 37.0582 17.4675 39.3507 17.4675ZM39.3434 23.2316C40.5372 23.2316 41.4528 22.3674 41.4528 21.1735V21.1589C41.4528 19.9504 40.5372 19.0056 39.3654 19.0056C38.2008 19.0056 37.2706 19.9357 37.2706 21.1149V21.1296C37.2706 22.3527 38.1422 23.2316 39.3434 23.2316ZM46.5146 21.4518C45.8481 21.4518 45.3501 20.9391 45.3501 20.2946C45.3501 19.6428 45.8481 19.1374 46.5146 19.1374C47.1885 19.1374 47.6792 19.6428 47.6792 20.2946C47.6792 20.9391 47.1885 21.4518 46.5146 21.4518ZM46.5146 26.8864C45.8481 26.8864 45.3501 26.381 45.3501 25.7292C45.3501 25.0773 45.8481 24.572 46.5146 24.572C47.1885 24.572 47.6792 25.0773 47.6792 25.7292C47.6792 26.381 47.1885 26.8864 46.5146 26.8864ZM54.5868 28.3V26.2712H49.4159V24.7258C50.7855 22.3454 52.287 19.9138 53.7225 17.7311H56.3959V24.7111H57.8168V26.2712H56.3959V28.3H54.5868ZM51.1737 24.7551H54.6161V19.2399H54.5062C53.4222 20.8952 52.1991 22.8508 51.1737 24.6452V24.7551ZM61.8167 28.3V19.5915H61.6921L59.0628 21.4518V19.6721L61.824 17.7311H63.7063V28.3H61.8167Z" fill="black"/>
<rect x="326" y="17.6699" width="3" height="10.67" rx="1" fill="black" fill-opacity="0.35"/>
<rect x="321.33" y="20" width="3" height="8.33" rx="1" fill="black"/>
<rect x="316.67" y="22.3301" width="3" height="6" rx="1" fill="black"/>
<rect x="312" y="24.3301" width="3" height="4" rx="1" fill="black"/>
<path d="M341.508 17.3301C344.166 17.3301 346.707 18.3097 348.719 20.1053L348.89 20.2586C349.029 20.3824 349.037 20.6032 348.908 20.7378L347.722 21.9742C347.607 22.094 347.423 22.1024 347.298 21.9936L347.152 21.8652C345.568 20.4813 343.583 19.7285 341.508 19.7285C339.426 19.7285 337.435 20.4864 335.849 21.879L335.702 22.008C335.577 22.1174 335.393 22.1092 335.278 21.9892L334.092 20.753C333.963 20.6186 333.971 20.3982 334.109 20.2742L334.28 20.1209C336.294 18.3156 338.843 17.3301 341.508 17.3301Z" fill="black"/>
<path d="M341.508 21.1484C343.183 21.1484 344.791 21.729 346.1 22.804L346.285 22.9559C346.433 23.0771 346.446 23.3053 346.313 23.4437L345.123 24.6841C345.013 24.7989 344.839 24.812 344.714 24.7151L344.569 24.6024C343.684 23.9154 342.617 23.5468 341.508 23.5468C340.392 23.5468 339.319 23.9199 338.432 24.6149L338.287 24.7286C338.162 24.8263 337.987 24.8135 337.876 24.6984L336.687 23.4585C336.554 23.3203 336.567 23.0927 336.714 22.9713L336.898 22.8192C338.21 21.7346 339.826 21.1484 341.508 21.1484Z" fill="black"/>
<path d="M341.508 24.9629C342.181 24.9629 342.835 25.1477 343.412 25.5002L343.645 25.643C343.822 25.7513 343.853 26.0047 343.708 26.1559L341.715 28.2336C341.592 28.3612 341.394 28.3612 341.271 28.2336L339.29 26.1693C339.146 26.0187 339.176 25.7666 339.351 25.6575L339.582 25.5141C340.164 25.1527 340.826 24.9629 341.508 24.9629Z" fill="black"/>
<path opacity="0.4" fill-rule="evenodd" clip-rule="evenodd" d="M377.33 21C378.12 21.3716 378.66 22.1277 378.66 23C378.66 23.8723 378.12 24.6284 377.33 25V21Z" fill="black"/>
<rect x="354.83" y="17.8301" width="21" height="10.33" rx="2.5" stroke="black" stroke-opacity="0.35"/>
<rect x="356.33" y="19.3301" width="18" height="7.33" rx="1" fill="black"/>
</svg>
