<svg preserveAspectRatio="none" width="100%" height="100%" overflow="visible" style="display: block;" viewBox="0 0 24 24" fill="none" xmlns="http://www.w3.org/2000/svg">
<g id="Off">
<path id="Union" d="M6 2C10.3205 2 11.8755 2.9218 11.9927 7.42049L11.9995 7.426V7.426L12 6C12 3.79086 13.7909 2 16 2V4C14.8954 4 14 4.89543 14 6V6.29527C14.8629 5.99976 15.7861 5.912 16.7247 6.09539C18.5171 6.44566 19.8341 7.59316 20.5661 9.17716C21.2865 10.7361 21.4344 12.6889 21.0251 14.7496C20.0875 19.4691 17.1932 22.0043 14.4999 22.0043C13.3969 22.0043 12.5364 21.452 11.9999 20.985C11.4634 21.452 10.6029 22.0043 9.49991 22.0043C6.84258 22.0043 3.91311 19.473 2.97485 14.7496C2.56552 12.689 2.71317 10.7362 3.4333 9.17729C4.09422 7.74657 5.23238 6.67192 6.76728 6.2192C6.17963 5.27555 6 3.90722 6 2ZM11.2722 9.47652C10.1762 8.31499 8.85981 7.8234 7.6579 8.05827C6.55583 8.27363 5.73829 8.95668 5.24894 10.016C4.74796 11.1005 4.58769 12.6039 4.93652 14.3599C5.76937 18.5526 8.15724 20.0043 9.49991 20.0043C9.98636 20.0043 10.4503 19.7127 10.8162 19.3574C11.1596 19.0239 11.6037 18.8888 11.9999 18.8888C12.3961 18.8888 12.8402 19.0239 13.1836 19.3574C13.5494 19.7127 14.0134 20.0043 14.4999 20.0043C15.8726 20.0043 18.2298 18.5565 19.0634 14.3599C19.4122 12.604 19.2517 11.1006 18.7506 10.0161C18.261 8.95676 17.4432 8.27364 16.3411 8.05827C15.1392 7.82341 13.8228 8.31499 12.7268 9.47652L11.9995 10.2474L11.2722 9.47652Z" fill="var(--fill-0, #535F5F)"/>
</g>
</svg>
